<svg xmlns="http://www.w3.org/2000/svg" xmlns:xlink="http://www.w3.org/1999/xlink" preserveAspectRatio="xMidYMid" width="34.313" height="34.313" viewBox="0 0 34.313 34.313">
  <defs>
    <style>
      .cls-1 {
        fill: #707070;
        fill-rule: evenodd;
      }
    </style>
  </defs>
  <path d="M17.156,34.313 C7.681,34.313 0.000,26.631 0.000,17.157 C0.000,7.681 7.681,0.000 17.156,0.000 C26.632,0.000 34.313,7.681 34.313,17.157 C34.313,26.631 26.632,34.313 17.156,34.313 ZM23.949,21.199 C24.226,21.199 24.449,20.976 24.449,20.699 L24.449,9.699 C24.449,8.872 23.776,8.200 22.949,8.200 L21.449,8.200 L14.449,8.200 L12.949,8.200 C12.122,8.200 11.449,8.872 11.449,9.699 L11.449,22.700 C11.449,24.081 12.568,25.199 13.949,25.199 L23.949,25.199 C24.226,25.199 24.449,24.976 24.449,24.699 C24.449,24.423 24.226,24.199 23.949,24.199 L23.449,24.199 L23.449,21.199 L23.949,21.199 ZM12.449,22.700 C12.449,21.873 13.122,21.199 13.949,21.199 L22.449,21.199 L22.449,24.199 L13.949,24.199 C13.122,24.199 12.449,23.527 12.449,22.700 ZM13.449,17.199 L13.449,9.199 L17.449,9.199 L17.449,17.199 L15.450,15.922 L13.449,17.199 Z" class="cls-1"/>
</svg>
